<svg xmlns="http://www.w3.org/2000/svg" width="400" height="800" fill="#FFFFFF" viewBox="0 0 400 NaN" xmlns:v="https://vecta.io/nano"><path d="M240.743 1.55c-93.189 11.317-138.27 56.685-146.254 147.186-1.062 12.039-1.48 30.928-1.484 67.014L93 266H46.5 0v67.5V401h46.5H93v199.5V800h87 87V600.5 401h58.441c33.587 0 58.678-.383 58.998-.901.306-.495 1.228-6.571 2.049-13.501l2.956-24.849L392.976 332l6.05-49.791c.536-4.01.974-9.297.974-11.75V266h-66.5H267v-42.276c0-88.035 1.735-89.724 92.159-89.724H400V67 0l-74.25.122c-54.285.089-77.142.473-85.007 1.428" fill-rule="evenodd"/></svg>