<svg xmlns="http://www.w3.org/2000/svg" width="400" height="400" fill="#FFF" viewBox="0 0 400 NaN"><path d="M123.016.501C47.353 4.237 8.711 38.383 1.435 107.937c-1.49 14.242-1.49 169.884 0 184.126 3.47 33.175 13.197 55.945 31.877 74.625s41.45 28.407 74.625 31.877c14.242 1.49 169.884 1.49 184.126 0 64.366-6.733 99.769-42.136 106.502-106.502 1.49-14.242 1.49-169.884 0-184.126-6.671-63.768-41.503-99.098-104.914-106.414C285.994.64 138.141-.246 123.016.501m164.286 37.512c48.237 5.085 69.85 27.021 74.757 75.876 1.481 14.741 1.481 157.481 0 172.222-4.95 49.285-26.663 70.998-75.948 75.948-14.741 1.481-157.481 1.481-172.222 0-48.853-4.907-70.829-26.561-75.869-74.757-2.345-22.422-1.649-163.533.898-182.143 5.335-38.979 27.435-60.965 66.638-66.294 16.905-2.298 161.594-2.977 181.746-.852m10.321 32.419c-15.786 5.57-20.222 27.722-7.999 39.944 15.579 15.579 41.33 4.698 41.328-17.462-.002-16.735-17.041-28.229-33.329-22.482m-110.718 27.24c-84.201 11.477-119.775 113.053-60.896 173.879 58.062 59.982 158.999 29.84 175.329-52.359 13.428-67.591-46.123-130.83-114.433-121.52m31.746 38.828c47.682 15.253 63.061 73.05 29.01 109.03-28.599 30.218-78.73 26.181-102.161-8.228-24.725-36.31-7.514-86.609 34.322-100.304 10.52-3.445 28.882-3.68 38.829-.498" fill-rule="evenodd"/></svg>